<svg xmlns="http://www.w3.org/2000/svg" xmlns:xlink="http://www.w3.org/1999/xlink" viewBox="0 0 373.808 64.85">
  <defs>
    <style>
      .cls-1, .cls-13, .cls-14, .cls-2, .cls-3, .cls-4 {
        fill-rule: evenodd;
      }

      .cls-2 {
        fill: #d2ab67;
      }

      .cls-3 {
        fill: #ed1c24;
      }

      .cls-4 {
        fill: #0066b3;
      }

      .cls-5 {
        clip-path: url(#clip-path);
      }

      .cls-6 {
        fill: url(#linear-gradient);
      }

      .cls-7 {
        clip-path: url(#clip-path-2);
      }

      .cls-8 {
        fill: url(#linear-gradient-2);
      }

      .cls-9 {
        clip-path: url(#clip-path-3);
      }

      .cls-10 {
        fill: url(#linear-gradient-3);
      }

      .cls-11 {
        clip-path: url(#clip-path-4);
      }

      .cls-12 {
        fill: url(#linear-gradient-4);
      }

      .cls-13 {
        fill: #7a7b6f;
      }

      .cls-14 {
        fill: #fff;
      }

      .cls-15 {
        fill: #2e2e2e;
      }
    </style>
    <clipPath id="clip-path">
      <path id="Path_155" data-name="Path 155" d="M78.482,155.723a.474.474,0,0,1,0,.056c0-.019,0-.038,0-.057,0,0,0,0,0,0m17.575-4.276v-.007h0s0,0,0,.007m-.01-.007h.007l-.007-.01Zm-14.381-.687c-.1.021-.212.052-.312.083a14.49,14.49,0,0,0-1.821.566,12.986,12.986,0,0,0-1.047,4.321c3.477-1.168,8.268-2.045,12.021-1.515a39.616,39.616,0,0,1,6.567,1.6,9.248,9.248,0,0,0-1.016-4.354v.005A36.391,36.391,0,0,0,91,150.333c-.111-.014-.21-.049-.321-.062-.432-.052-.852-.106-1.286-.135-.366-.04-.72-.036-1.087-.054-.307-.014-.615-.021-.924-.021a24.989,24.989,0,0,0-5.72.693" transform="translate(-78.48 -150.06)"/>
    </clipPath>
    <linearGradient id="linear-gradient" x1="-2.262" y1="13.394" x2="-2.253" y2="13.394" gradientUnits="objectBoundingBox">
      <stop offset="0" stop-color="#fff"/>
      <stop offset="1" stop-color="#fff"/>
    </linearGradient>
    <clipPath id="clip-path-2">
      <path id="Path_161" data-name="Path 161" d="M81.778,198.245l-1.118.29a30.935,30.935,0,0,0,1.208,3.774,21.028,21.028,0,0,1,15.459.12,25.075,25.075,0,0,0,1.069-3.7c-.132-.069-.276-.128-.418-.187-.674-.226-1.446-.453-2.1-.611a29.408,29.408,0,0,0-6.649-.856,26.388,26.388,0,0,0-7.452,1.175" transform="translate(-80.66 -197.07)"/>
    </clipPath>
    <linearGradient id="linear-gradient-2" x1="-2.395" y1="12.957" x2="-2.385" y2="12.957" xlink:href="#linear-gradient"/>
    <clipPath id="clip-path-3">
      <path id="Path_168" data-name="Path 168" d="M100.56,241.566a20.165,20.165,0,0,0-5.34,1.014,35.186,35.186,0,0,1,.894,3.79,16.262,16.262,0,0,1,8.319-.589c.939.219,1.76.312,2.687.609.378-1.232.729-2.687,1.005-3.831a23.124,23.124,0,0,0-6.5-1.029c-.359,0-.717.01-1.068.036" transform="translate(-95.22 -241.53)"/>
    </clipPath>
    <linearGradient id="linear-gradient-3" x1="-3.476" y1="13.153" x2="-3.462" y2="13.153" xlink:href="#linear-gradient"/>
    <clipPath id="clip-path-4">
      <path id="Path_173" data-name="Path 173" d="M106.343,286.768c-.01-.012-.01-.023-.021-.033a.012.012,0,0,0-.012.01,2.029,2.029,0,0,0,.1.255c.087.184.361.84.437.95a4.723,4.723,0,0,0,8.353-.623c.047-.118.161-.373.2-.495a14.751,14.751,0,0,0-4.859-.8,10.842,10.842,0,0,0-4.2.738" transform="translate(-106.31 -286.03)"/>
    </clipPath>
    <linearGradient id="linear-gradient-4" x1="-5.127" y1="13.845" x2="-5.108" y2="13.845" xlink:href="#linear-gradient"/>
  </defs>
  <g id="grd-header" transform="translate(-23.001 -11)">
    <g id="Group_71" data-name="Group 71" transform="translate(-3455.24 170.172)">
      <path id="Path_110" data-name="Path 110" class="cls-1" d="M38.051.41a.718.718,0,0,1-.144.542c-.045.021-.012.078-.024.111.16.325.325-.1.535-.078A.546.546,0,0,1,39,1.363a.538.538,0,0,1-.111.564.619.619,0,0,1-.67.165c-.076-.024-.13-.113-.231-.094-.135.1-.068.066-.071.233a2.273,2.273,0,0,1-.043,1.088,1.38,1.38,0,0,1,.838,1.47.4.4,0,0,1-.127.241l.3-.083a1.047,1.047,0,0,1,.651.247.787.787,0,0,1,.071.9.535.535,0,0,1-.45.259c-.144.019-.276-.083-.408-.13a1.2,1.2,0,0,0,.682.891,1.6,1.6,0,0,0,1.436-.149,2.422,2.422,0,0,0,.9-2.316c1.439,1.394,3.621.58,5.293.279a3.071,3.071,0,0,1,3.022,1.635,3.466,3.466,0,0,0,.2.349,2.945,2.945,0,0,1,.93.106,3.248,3.248,0,0,1,2.231,1.8,2.835,2.835,0,0,1-.012,2.4,2.428,2.428,0,0,1-2.1,1.182.736.736,0,0,1,.139.88.705.705,0,0,1-.684.365,2.351,2.351,0,0,1-.354-.1,3.564,3.564,0,0,0-.722,1.186.564.564,0,0,1,.109.68c-.148.13-.347.115-.5.191a5.387,5.387,0,0,0-.557,1.222c.231.16.181.47.142.7a4.071,4.071,0,0,1-2.278,1.222c-.693.175-1.146.068-1.561.3a2.331,2.331,0,0,1-.323.582,1.549,1.549,0,0,1-2.118.382c-.142-.148-.776-.1-1.064-.12a1.466,1.466,0,0,0,.476.708,2.906,2.906,0,0,0,2.673.729,3.791,3.791,0,0,0,2.309-1.71c.252.215.618.189.927.273-.127.276-.222.573-.339.816a3.9,3.9,0,0,0-.245.616,4.135,4.135,0,0,0,.281,2.16c2.453-2.774,4.663-5.72,7.812-8.291-1.274,2.774-4.09,6.5-6.291,9.52.351.273.941.161,1.319.17a3.552,3.552,0,0,0,2.79-2.4l.087.146a5.92,5.92,0,0,1-.181,3.062,5.887,5.887,0,0,1,4.085,4.788c.536,2.765-.564,5.131-2.026,7.225-1,1.38-2.6,2.394-3.494,3.854A12.233,12.233,0,0,0,50.5,44.6c-.193-.993-.752-1.892-.573-3.109l-.181.186a8.138,8.138,0,0,0-2.293,2.543,3.216,3.216,0,0,0-.392.814,2.628,2.628,0,0,0,.135,2.224,1.327,1.327,0,0,0,1.455.606,1.012,1.012,0,0,0,.5-.368c-.054-.113-.156.019-.255-.005a1.352,1.352,0,0,1-1.305-.814c-.215-.326-.031-.656-.036-1a1.871,1.871,0,0,1,.682-.776c.642-.476,1.479-.071,2.048.283a2.418,2.418,0,0,1,.819,2.46,3.433,3.433,0,0,1-.21.562,3.276,3.276,0,0,1-1.927,1.474,8.525,8.525,0,0,1,.582,1.5c-.177.019-.352-.174-.54-.21a3.5,3.5,0,0,0-2.781.181,1.111,1.111,0,0,1,.689.547c.04.267.146.491.009.745a1.921,1.921,0,0,1,1.373.2c1.824,1.045,1.366,3.481,3.269,4.449a1.1,1.1,0,0,0,1.179-.033c.08-.154.24-.318.243-.462.168.448-.127.83-.378,1.16a2.72,2.72,0,0,1-.974.415,3.831,3.831,0,0,1,.552.766c-.075.455.5.142.713.458a.79.79,0,0,1,.132.68.644.644,0,0,1-.418.425.779.779,0,0,1-.7-.158c-.274-.194-.191-.481-.163-.736-.41-.085-.745-.569-1.016-.875a2.159,2.159,0,0,1-.764,1.052,1.643,1.643,0,0,1-.9.149,1.287,1.287,0,0,0,.752-1.007c-.092-1.568-1.689-2.231-2.764-3.029l-.217-.238c-.564-.677-1.191-1.588-.741-2.469-.109-.113-.311-.028-.431-.1a1.247,1.247,0,0,1-.63-.734c-.236.106-.264.417-.368.627-.174.941-.441,2.146.266,2.96a1.193,1.193,0,0,0-.724.663,1.873,1.873,0,0,0-1.821-.623,2.447,2.447,0,0,0-1.755,1.743.347.347,0,0,0-.005.3c1.13.177,2.484-.974,3.236.373a1.5,1.5,0,0,1-.182,1.429c-.821,1.151-2.291.745-3.387.524l-.3-.094a4.668,4.668,0,0,1-1.493-.906l-.186.463c1.255.547,1.389,2.258,2.753,2.418-.665.509-1.415.838-2,.517a1.1,1.1,0,0,1-.276-.106c-.137.208-.344.5-.434.648a4.6,4.6,0,0,0-.764,1.585l-.056,0c-.227-.859-.962-1.418-1.335-2.2a1.907,1.907,0,0,1-2.1-.4L34,62.14c1.542.151,1.493-1.948,2.821-2.279-.109-.123-.113-.446-.316-.361a4.761,4.761,0,0,1-4.194.908,1.728,1.728,0,0,1-1.2-1.278,1.471,1.471,0,0,1,.219-.984,1.1,1.1,0,0,1,.62-.432,4.14,4.14,0,0,1,1.719.155c.266.061.531.109.774.148a2.281,2.281,0,0,0-1.229-1.934,1.773,1.773,0,0,0-2.048.283l-.035.033a3.425,3.425,0,0,0-.927-.351,4.342,4.342,0,0,0-.04-3.677c-.179.042-.306.283-.418.4a13.584,13.584,0,0,0-1.3,1.63l.153.125-.307.349c.543.621,1.635,1.064,1.427,2.071-.1.22-.243.495-.51.545a.735.735,0,0,1-.661-.257.708.708,0,0,1-.108-.724c.012-.066.09-.109.148-.175-.236-.4-.689-.58-1.038-.865a15.779,15.779,0,0,1-2.81,3.479,1.508,1.508,0,0,1-.648.165c-.016.266.045.535-.158.752a.878.878,0,0,1-.882.227c-.175-.125-.406-.229-.481-.453a.882.882,0,0,1,.036-.733.735.735,0,0,1,.74-.307c-.078-1.123.925-1.9,1.509-2.8l1.226-1.354c-.642-.656-1.812-1.068-1.915-2.1a.694.694,0,0,1,.514-.724.873.873,0,0,1,.663.123c.262.194.212.526.163.792,0,.089-.2.13-.094.243l1.029.719c.146-.087.323-.594.516-.224.59-.7,1.172-1.465,1.764-2.187a2.948,2.948,0,0,0-2.889.033c-.056.043-.1.109-.179.085a4.1,4.1,0,0,1,.406-1.514l-.373-.186a2.821,2.821,0,0,1-1.6-2.13,2.386,2.386,0,0,1,.774-2.151,2,2,0,0,1,1.927-.318,1.3,1.3,0,0,1,.764,1.3,1.142,1.142,0,0,1-.8,1.285,1.175,1.175,0,0,1-.8-.059,1.228,1.228,0,0,0,1.347.415,1.631,1.631,0,0,0,1.012-1.213,3.344,3.344,0,0,0-1.075-3.052,12.186,12.186,0,0,0-1.875-1.824l-.057.054c-.031,1.033-.557,1.856-.632,2.854-.207-2.559-2.47-4.4-4.213-6.178l.035-.043c-3.588-3.456-4.35-10.046,1.029-12.62.156-.064.325-.127.436-.17l-.043-.078a4.045,4.045,0,0,1-.045-2.866,3.314,3.314,0,0,0,2,2.172,3.725,3.725,0,0,0,2.309.045c-.161-.226-.491-.41-.575-.71a.83.83,0,0,1,.035-.632.912.912,0,0,1-.368.059,2.053,2.053,0,0,1-1.9-1.024c-.7-1.368-1.064-2.975-2.592-3.816a1.386,1.386,0,0,0-1.146.089.883.883,0,0,0-.3.46c-.085-.179.031-.422.1-.642a1.629,1.629,0,0,1,1.307-.986,1.048,1.048,0,0,1-.358-.462c-.076-.057-.085-.191-.128-.236-.031-.078.014-.154.016-.222a.879.879,0,0,1-.741-.181.74.74,0,0,1-.208-.715.7.7,0,0,1,.319-.46.891.891,0,0,1,.788,0,.766.766,0,0,1,.311.606,2.127,2.127,0,0,1-.085.387c.257-.118.778.582.8.693.276-.505.856-1.172,1.455-1.16.1-.021.165.047.253.061a.877.877,0,0,0-.587.467,1.456,1.456,0,0,0,.149,1.524c1.179,1.677,4.6,2.231,3.694,4.824a1.044,1.044,0,0,1,1,.486,1.077,1.077,0,0,1,.113.479A4.327,4.327,0,0,0,27.8,21.47a6.421,6.421,0,0,0-.793-1.5l-.066-.08a1.711,1.711,0,0,0,1.118-.368A3.945,3.945,0,0,0,31.211,21.4a2.572,2.572,0,0,0,2.394-1.509l0-.056c-1.121,0-2.748.781-3.43-.654l-.087-.135a12.044,12.044,0,0,1-3.316-.852.93.93,0,0,1-.684-.8c-.007-.267.175-.451.267-.672-.273-.283-.193-1-.738-.892a.5.5,0,0,1-.429-.274.786.786,0,0,1,.191-.663,11.79,11.79,0,0,0-.8-1.271,1.065,1.065,0,0,1-.8-.127.683.683,0,0,1-.229-.781.35.35,0,0,1,.148-.208,2.718,2.718,0,0,1-.665-.047,2.25,2.25,0,0,1-1.035-.463,2.544,2.544,0,0,1-.726-2.658,3.354,3.354,0,0,1,2.587-2.305c.3-.061.6-.122.9-.16a3.149,3.149,0,0,1,1.7-1.722c2.057-.727,3.857.962,5.841.056a3.7,3.7,0,0,0,.8-.385,2.338,2.338,0,0,0,1.016,2.107,1.537,1.537,0,0,0,1.667.01,1.3,1.3,0,0,0,.391-.713.6.6,0,0,1-.854-.071.749.749,0,0,1-.087-.691.685.685,0,0,1,.554-.477c.177.014.389-.049.531.066a1.323,1.323,0,0,1,.113-1.22,1.742,1.742,0,0,1,.621-.521A3.385,3.385,0,0,1,37.1,2.055c-.2-.215-.356.049-.634.043-.321-.007-.429-.241-.514-.465a.605.605,0,0,1,.378-.615.355.355,0,0,1,.389.007c.1.057.252.172.286.116L37.169,1C36.917.852,36.956.554,37,.344a.493.493,0,0,1,.417-.292.516.516,0,0,1,.63.358" transform="translate(3460.593 -159.208)"/>
      <path id="Path_111" data-name="Path 111" class="cls-2" d="M147.787,31.01a2.877,2.877,0,0,1-.109,2.809,2.534,2.534,0,0,1-1.684.967,3.122,3.122,0,0,1-.854-.106,2.1,2.1,0,0,0,1.972-3.239,2.8,2.8,0,0,0-2.922-1.088,6.4,6.4,0,0,1-3.366.024c-.654,1.076-1.642,2.267-3.026,2.029a2.17,2.17,0,0,1-1.507-1.318,1.239,1.239,0,0,1,.246-1.25c.08-.142.292-.149.436-.135a.556.556,0,0,1,.493.354c.019.167.024.422-.142.474a.387.387,0,0,1-.477.014c-.154-.069-.153-.17-.24-.293a1.387,1.387,0,0,0,.627,1.522,1.786,1.786,0,0,0,2.015-.25,3.06,3.06,0,0,0,.932-1.7,1.517,1.517,0,0,0,.74.214c.264.149.632.09.929.184a12.307,12.307,0,0,0,2.607-.495,3.666,3.666,0,0,1,2.7.517,3.549,3.549,0,0,1,.63.769" transform="translate(3362.59 -183.709)"/>
      <path id="Path_112" data-name="Path 112" class="cls-2" d="M70.584,30.345a1.591,1.591,0,0,1-.328,1.46,2.121,2.121,0,0,1-2.144.569,3.461,3.461,0,0,1-1.864-1.812c-1.092.757-2.069.182-3.012.109a3.592,3.592,0,0,0-3.109.562,1.978,1.978,0,0,0,1.134,3.453,1.4,1.4,0,0,0,.432.031,2.253,2.253,0,0,1-2.038-.273,4.029,4.029,0,0,1-.424-.463A2.6,2.6,0,0,1,58.9,33.4a2.157,2.157,0,0,1-.142-.724,2.326,2.326,0,0,1,.2-1.085,4.5,4.5,0,0,1,1.5-1.538,3.539,3.539,0,0,1,1.726-.2c.719.158,1.482.34,2.146.463l.089.024a3.969,3.969,0,0,0,2.352-.455l.005.323a2.417,2.417,0,0,0,1.675,1.786,1.572,1.572,0,0,0,1.675-.512,1.1,1.1,0,0,0,.113-1.208c-.036.177-.052.366-.253.429a.93.93,0,0,1-.356.005.4.4,0,0,1-.224-.493c.014-.122.1-.175.1-.208.092-.165.292-.194.5-.191.222.09.529.262.58.529" transform="translate(3426.624 -183.817)"/>
      <path id="Path_113" data-name="Path 113" class="cls-3" d="M77.537,32.421a1.928,1.928,0,0,0,.845,2.215,2.574,2.574,0,0,0,2.632.05A5.585,5.585,0,0,0,82.385,33.3c.214-.108.453.109.677.047,1.693.366,3.487-1.154,4.892.306a1.761,1.761,0,0,1,.354,1.84,1.654,1.654,0,0,1-1.2,1,2.4,2.4,0,0,1-2-.583,2.159,2.159,0,0,0,1.267,1.123c.066.035.122.047.1.057a.754.754,0,0,0-.281.139.633.633,0,0,0-.214.7.926.926,0,0,0,.246.437.617.617,0,0,1-.125.175,2.761,2.761,0,0,1-1.706.944,2.023,2.023,0,0,1-1.594-.908,3.759,3.759,0,0,1-.408-1.363.827.827,0,0,0,.543-.49.812.812,0,0,0-.161-.814.835.835,0,0,0-.9-.151.813.813,0,0,0-.365,1.049.963.963,0,0,0,.349.351l-.059.144A2.842,2.842,0,0,1,80,38.809a2.453,2.453,0,0,1-2.717-1.918l-.009-.134c.019.167.328.262.427.342a1.158,1.158,0,0,0,.759-.153,1.021,1.021,0,0,0,.342-1.016,1,1,0,0,0-.989-.575l-.012.023a1,1,0,0,0-.1-1.024.9.9,0,0,0-.672-.335,1.019,1.019,0,0,0-.9.583,1.164,1.164,0,0,0,.116.835.981.981,0,0,0-.625.132.874.874,0,0,0,.17,1.569.8.8,0,0,0,.962-.382,2.438,2.438,0,0,1-.312.694A2.7,2.7,0,0,1,74.3,38.844a2.554,2.554,0,0,1-2.232-1.686.841.841,0,0,0,.479-.713.793.793,0,0,0-.431-.7.808.808,0,0,0-.936.094.687.687,0,0,0-.255.616.986.986,0,0,0,.464.7.534.534,0,0,1,.144.059,3.06,3.06,0,0,1-1.081,2,2.085,2.085,0,0,1-2.106-.2,3.354,3.354,0,0,1-.665-.646A.9.9,0,0,0,68,37.448c-.1-.146-.182-.359-.37-.4a3,3,0,0,0,1.007-.969c-.177-.026-.337.2-.528.29a2.27,2.27,0,0,1-1.986-.1,1.507,1.507,0,0,1-.712-1.125,1.815,1.815,0,0,1,.845-1.795c1.715-.866,3.409.587,5.156-.1a3.443,3.443,0,0,0,3.323,1.663,2.075,2.075,0,0,0,1.509-1.1,1.927,1.927,0,0,0,.094-1.408,1.248,1.248,0,0,0,1.2.021" transform="translate(3421.127 -185.954)"/>
      <path id="Path_114" data-name="Path 114" class="cls-2" d="M206.672,41a3.692,3.692,0,0,1,1.505.818l.087.09a3,3,0,0,1,.675,1.279,2.39,2.39,0,0,1-.361,2.014c-.41.481-1.877,1.12-2.331.533a2.085,2.085,0,0,0,1.9-.951,2.374,2.374,0,0,0,.181-1.318,1.378,1.378,0,0,0-.309-.717,2.756,2.756,0,0,0-1.63-1.276c-.21-.038-.455-.031-.453-.109a1.985,1.985,0,0,0-.09-.469,3.319,3.319,0,0,1,.832.106" transform="translate(3305.07 -192.977)"/>
      <path id="Path_115" data-name="Path 115" class="cls-2" d="M42.31,41.7a2.556,2.556,0,0,0-2.232,1.7,2.51,2.51,0,0,0,.089,1.745A1.982,1.982,0,0,0,41.6,46.162a1.912,1.912,0,0,0,.667-.009,2.085,2.085,0,0,1-2.1-.1,2.33,2.33,0,0,1-.852-2.5,2.864,2.864,0,0,1,1.972-2.061,6.189,6.189,0,0,1,1.137-.222Z" transform="translate(3442.746 -193.284)"/>
      <path id="Path_116" data-name="Path 116" class="cls-3" d="M192.854,47.135a2.449,2.449,0,0,1-.061,1.465,1.852,1.852,0,0,1-1.47.849,2.151,2.151,0,0,1-.981-.375c.012.49.609.679.937.9a.733.733,0,0,0-.62.488c-.071.243.08.469.076.668a2.2,2.2,0,0,1-1.941.441c-.552-.154-.83-.771-.986-1.262a1.762,1.762,0,0,1,.061-.832.764.764,0,0,0,.675-.42.716.716,0,0,0-.128-.8,2.921,2.921,0,0,0,2.522-1.762,2.437,2.437,0,0,0,.127-.819,2.4,2.4,0,0,1,1.788,1.465" transform="translate(3319.988 -196.92)"/>
      <path id="Path_117" data-name="Path 117" class="cls-3" d="M47.67,45.677A2.819,2.819,0,0,0,49.3,47.919a2.645,2.645,0,0,0,1.052.165.855.855,0,0,0-.061.887.731.731,0,0,0,.738.359,2.164,2.164,0,0,1-.557,1.833,1.987,1.987,0,0,1-2.045.05.931.931,0,0,1-.351-.24.818.818,0,0,0-.321-1.238c.3-.217.708-.441.771-.774a1.963,1.963,0,0,1-1.673.345A1.725,1.725,0,0,1,45.9,48.5a2.223,2.223,0,0,1,.366-2.271,2.507,2.507,0,0,1,1.39-.74Z" transform="translate(3437.376 -196.772)"/>
      <path id="Path_118" data-name="Path 118" class="cls-2" d="M125.884,57.1a3.775,3.775,0,0,0,.649.924,1.659,1.659,0,0,0,.559.389,24.7,24.7,0,0,0-2.732-.03,4.334,4.334,0,0,0,1.033-1.113,2.384,2.384,0,0,0,.311-1.127,3.107,3.107,0,0,0,.181.957" transform="translate(3372.405 -205.573)"/>
      <path id="Path_119" data-name="Path 119" class="cls-2" d="M155.263,62.252c-.021-.033-2.194-.264-2.383-.279a3.026,3.026,0,0,0,1.163-1.033,2.375,2.375,0,0,0,.358-.66c.122.658.193,1.569.863,1.972" transform="translate(3348.836 -208.994)"/>
      <path id="Path_120" data-name="Path 120" class="cls-2" d="M99.526,61.774l-.033.021c.186.148.439.286.648.424-.191.085-.545.035-.792.128a7,7,0,0,0-1.259.175c.182-.252.333-.6.505-.891.1-.319.191-.663.274-.962a2.331,2.331,0,0,0,.656,1.1" transform="translate(3394.115 -209.317)"/>
      <path id="Path_121" data-name="Path 121" class="cls-2" d="M179.536,69.746c-.309-.128-.573-.245-.915-.373a5.024,5.024,0,0,0-.941-.207,3.885,3.885,0,0,0,1.293-.819,1.182,1.182,0,0,0,.207-.307,2.475,2.475,0,0,0,.356,1.706" transform="translate(3328.341 -215.407)"/>
      <path id="Path_122" data-name="Path 122" class="cls-2" d="M77.885,69.35a9.107,9.107,0,0,0-1.465.495,2.476,2.476,0,0,0,.229-1.505,2.619,2.619,0,0,0,1.236,1.01" transform="translate(3412.023 -215.655)"/>
      <path id="Path_123" data-name="Path 123" class="cls-2" d="M78.778,71.758a16.341,16.341,0,0,1,2.184.208c.154.024.443.075.554.1a10.059,10.059,0,0,1,1.194.267c.663.156,4.062,1.288,4.2,1.812a.188.188,0,0,1-.292.149,10.819,10.819,0,0,0-2.378-1.1c-.707-.224-1.436-.4-2.066-.606-.122-.024-.233-.049-.4-.075a40.917,40.917,0,0,0-6.7-.661,38.075,38.075,0,0,0-6.888.656c-.179.03-.6.144-.691.165A14.946,14.946,0,0,0,64.222,73.8c-.234.106-1.236.8-1.234.687-.142-.135-.151-.214-.028-.29,1.614-1.391,4.192-2.029,6.331-2.311a3.81,3.81,0,0,1,.59-.1c1.769-.167,3.283-.292,5.081-.314,1.3.141,2.574.064,3.816.288" transform="translate(3423.218 -218.242)"/>
      <path id="Path_124" data-name="Path 124" class="cls-2" d="M141.532,75.636a1.277,1.277,0,0,1-1,.6,2.267,2.267,0,0,1,.842.682c-1-.009-2.118-.186-3.251-.151a.738.738,0,0,0,.335-.7.911.911,0,0,0-.4-.7c1.2-.009,2.284.179,3.472.267" transform="translate(3361.083 -221.463)"/>
      <path id="Path_125" data-name="Path 125" class="cls-2" d="M109.217,75.4a.863.863,0,0,0-.436.713.763.763,0,0,0,.377.663l-.321-.007c-.644,0-1.368.073-1.989.106a5.437,5.437,0,0,1-.979.049,2.8,2.8,0,0,1,.668-.675c-.34-.2-.639-.245-.866-.606,1.123-.134,2.4-.165,3.547-.243" transform="translate(3387.851 -221.49)"/>
      <path id="Path_126" data-name="Path 126" class="cls-2" d="M160.2,77.089a9.884,9.884,0,0,1,1.936.4,2.075,2.075,0,0,1,.43.108.729.729,0,0,0-.533.523.7.7,0,0,0,.109.635,10.256,10.256,0,0,0-1.238-.29c-.1-.014-.266-.028-.365-.052-.41-.062-.9-.151-1.219-.168a1.363,1.363,0,0,1,1-.491,1.641,1.641,0,0,1-.615-.356,1.585,1.585,0,0,1-.3-.462c.089.024.564.1.8.149" transform="translate(3343.514 -222.762)"/>
      <path id="Path_127" data-name="Path 127" class="cls-4" d="M156.126,78.489c-.255.007-.618.377-.675.432a1.557,1.557,0,0,0-.6-.555,1.152,1.152,0,0,0,.7-.476,1.137,1.137,0,0,0,.578.6" transform="translate(3347.208 -223.547)"/>
      <path id="Path_128" data-name="Path 128" class="cls-4" d="M103.028,78.157a1.967,1.967,0,0,0-.58.656,1.664,1.664,0,0,0-.658-.49,1.335,1.335,0,0,0,.557-.634.951.951,0,0,0,.68.467" transform="translate(3391.057 -223.382)"/>
      <path id="Path_129" data-name="Path 129" class="cls-2" d="M185,83.141l.109.113a2.669,2.669,0,0,1-1.189.066,4.035,4.035,0,0,1,.528.91,12.011,12.011,0,0,0-2.1-.951c.179-.108.238-.207.342-.505a.8.8,0,0,0-.175-.713A12,12,0,0,1,185,83.141" transform="translate(3324.482 -226.993)"/>
      <path id="Path_130" data-name="Path 130" class="cls-2" d="M61.794,80.219c-.236.151-.406.347-.6.467l-.507-.776c.365.1.785.248,1.1.309" transform="translate(3425.022 -225.217)"/>
      <path id="Path_131" data-name="Path 131" class="cls-2" d="M197.65,79.132a6.412,6.412,0,0,1,.7.436l.516-.868a2.365,2.365,0,0,1-1.219.432" transform="translate(3311.838 -224.217)"/>
      <path id="Path_132" data-name="Path 132" class="cls-2" d="M68.627,82.15a.876.876,0,0,0-.193.785.791.791,0,0,0,.415.385,6.773,6.773,0,0,0-1.984.917l-.113.087a1.876,1.876,0,0,1,.359-.8,4.16,4.16,0,0,1-1.042-.109,7.4,7.4,0,0,1,2.378-1.21Z" transform="translate(3420.576 -227.068)"/>
      <path id="Path_133" data-name="Path 133" class="cls-2" d="M86.773,85.851l.266.061a9.3,9.3,0,0,1,3.272,1.418.54.54,0,0,1,.076.646,2.714,2.714,0,0,1-.989.625,6.852,6.852,0,0,1-2.187.5c-.033,0-.1.021-.122-.024a1.509,1.509,0,0,0-.233-1.2c.6-.21,1.17-.245,1.764-.488a2.565,2.565,0,0,1,.871.339c.089.047.241.16.128.279l-.384.292c.12.125.29-.017.424-.047a2.56,2.56,0,0,0,.406-.347c0-.366-.411-.519-.653-.679a15.183,15.183,0,0,0-3.932-1.163,45.084,45.084,0,0,0-6.324-.387l-.056-.045-.056.043c-3.423.113-6.777.148-9.761,1.668a.914.914,0,0,0-.417.337c-.08.076-.1.165-.03.354.141.181.359.373.606.3-.12-.135-.418-.2-.259-.45a1.6,1.6,0,0,1,1.55-.382c.276.05,1.083.276,1.371.3-.012.045-.047.076-.057.132a2.608,2.608,0,0,0-.134,1.2,8,8,0,0,1-3.369-.93.577.577,0,0,1-.168-.469.742.742,0,0,1,.5-.635c.594-.3,1.167-.566,1.771-.844a8.456,8.456,0,0,1,1.116-.312,36.149,36.149,0,0,1,9.619-.66,34.847,34.847,0,0,1,5.387.569" transform="translate(3418.669 -229.615)"/>
      <path id="Path_134" data-name="Path 134" class="cls-4" d="M194.242,90.09a6.137,6.137,0,0,0-.361.849,2.16,2.16,0,0,0-.451-.786,1.874,1.874,0,0,0,.812-.062" transform="translate(3315.325 -233.629)"/>
      <path id="Path_135" data-name="Path 135" class="cls-2" d="M194.953,98.192a37.067,37.067,0,0,1-2.234,3.022c-.274-.194-.891-.484-.939-.851.273-.339.42-.514.66-.809,2.153-2.236,3.586-4.618,6.183-6.845a43.978,43.978,0,0,1-3.67,5.482" transform="translate(3316.689 -235.795)"/>
      <path id="Path_136" data-name="Path 136" class="cls-3" d="M99.233,91.992a3.879,3.879,0,0,1-1.509.437c-1.719-1.932-3.911.047-5.954.064a29.8,29.8,0,0,1-6.315-.766,2.577,2.577,0,0,0-2.156.658c-.531-.076-1.04-.241-1.559-.352,2.583-.95,5.569-.849,8.459-1a30.917,30.917,0,0,1,9.034.962" transform="translate(3407.627 -234.406)"/>
      <path id="Path_137" data-name="Path 137" class="cls-4" d="M67.38,90.59a2.7,2.7,0,0,0-.29.649,2.481,2.481,0,0,1-.33-.729,1.251,1.251,0,0,0,.62.08" transform="translate(3420.006 -233.977)"/>
      <path id="Path_138" data-name="Path 138" class="cls-2" d="M31.748,95.009c.009,1.288,1.227,2,2.106,2.583a10.947,10.947,0,0,1,1.161.844,1.891,1.891,0,0,1,.477.564,1.912,1.912,0,0,1,.24,1.46,1,1,0,0,1-.556.623l-.068.021a1.257,1.257,0,0,1-1.12-.089c-1.436-1.038-1.408-3.026-2.776-4.107a2.847,2.847,0,0,0-.911-.561,1.354,1.354,0,0,0-1.1.1c.234-.6.967-.637,1.476-.493a3.776,3.776,0,0,1,1.347,1.014l.033-.021a10.31,10.31,0,0,1-.7-1A2.612,2.612,0,0,1,31.4,94.77a1.212,1.212,0,0,1,.5-.58,4.381,4.381,0,0,0-.149.819" transform="translate(3451.046 -237.018)"/>
      <path id="Path_139" data-name="Path 139" class="cls-4" d="M157.176,97.679a1.84,1.84,0,0,1-.3,1.75,1.348,1.348,0,0,1-1.26.319,1.076,1.076,0,0,1-.743-.648l-.03-.2a1.244,1.244,0,0,0,.283.306.7.7,0,0,0,.8.049.565.565,0,0,0,.354-.5c.038-.276.01-.533-.463-.764s-1.363.351-2.055.071a2.882,2.882,0,0,1,.562-.934,1.829,1.829,0,0,1,1.739-.377,2.652,2.652,0,0,1,1.114.932" transform="translate(3348.109 -239.079)"/>
      <path id="Path_140" data-name="Path 140" class="cls-4" d="M93.443,97.339c.229.172.371.906.411,1.13-.7-.047-1.632-.642-2.189.024a.724.724,0,0,0-.069.72.692.692,0,0,0,.637.389.593.593,0,0,0,.639-.3.786.786,0,0,1-.387.536,1.37,1.37,0,0,1-1.559-.352,1.453,1.453,0,0,1-.12-.135,1.545,1.545,0,0,1,1.3-2.408,1.734,1.734,0,0,1,1.335.394" transform="translate(3400.325 -239.293)"/>
      <path id="Path_141" data-name="Path 141" class="cls-2" d="M34.508,96.578a.742.742,0,0,0,.076.623c-.13-.125-.339-.318-.54-.266a3.015,3.015,0,0,1-.486-.7.268.268,0,0,1,.207-.318c.29-.005.536.387.743.658" transform="translate(3447.451 -238.447)"/>
      <path id="Path_142" data-name="Path 142" class="cls-2" d="M87.7,98.158a3.176,3.176,0,0,0-.33.394,2.6,2.6,0,0,0,.042,2.455,1.548,1.548,0,0,0,.377.6,3.258,3.258,0,0,0,2.422,1.158l-.023-.023a3.944,3.944,0,0,0,3.3-1.791,1.851,1.851,0,0,0,.5.132,7.343,7.343,0,0,1-1.882,2.6,4.423,4.423,0,0,1-1.3.62,16.114,16.114,0,0,0-2.571-1.427,19.083,19.083,0,0,0-3-.913,12.845,12.845,0,0,0-1.908-.115,3.539,3.539,0,0,0-.991.1,13.246,13.246,0,0,0-3.836,1.4,10.907,10.907,0,0,0-1.542,1.026,5.58,5.58,0,0,1-2.125-1.529A15.382,15.382,0,0,1,73.7,101.09c.234-.106.413-.125.637-.21a4.063,4.063,0,0,0,3.908,1.8,2.74,2.74,0,0,0,1.029-.391,3.314,3.314,0,0,0,1.1-1.345,2.907,2.907,0,0,0,.134-1.219,2.643,2.643,0,0,0-.25-.859,4.782,4.782,0,0,0-.6-.823c.311.017.974.2,1.3.259.83.16,2.127.3,2.626.339a7.634,7.634,0,0,0,1.265.014,13.431,13.431,0,0,0,2.843-.493" transform="translate(3414.271 -240.199)"/>
      <path id="Path_143" data-name="Path 143" class="cls-2" d="M162.433,105.765a.464.464,0,0,1-.278.606.439.439,0,0,1-.43-.1c-.075-.191-.226-.392-.056-.578a.492.492,0,0,1,.764.069" transform="translate(3341.637 -246.4)"/>
      <path id="Path_144" data-name="Path 144" class="cls-2" d="M154.809,107.429c-.288.005-.632-.045-.943-.062a2.307,2.307,0,0,1-.151-.792c-.155-.615.635-.155.885-.4a1.167,1.167,0,0,0,.208,1.259" transform="translate(3348.162 -246.918)"/>
      <path id="Path_145" data-name="Path 145" class="cls-2" d="M105.86,106.373a2.08,2.08,0,0,1,.016.934,1.7,1.7,0,0,0-.845.073,1.207,1.207,0,0,0,.151-.941,1.527,1.527,0,0,0-.139-.269c.288.069.609.132.818.2" transform="translate(3388.38 -246.918)"/>
      <path id="Path_146" data-name="Path 146" class="cls-2" d="M83.391,122.356c.165.059.6.134.6.156a12.474,12.474,0,0,1,3.647,1.559l.493.332-.021-.035a16.547,16.547,0,0,1,2.564,2.937c.333.55,1.08,2.187,1.121,2.309a9.873,9.873,0,0,0-.038,1.976,1.968,1.968,0,0,0,.512,1.1,6.678,6.678,0,0,1-.076,2.208,2.389,2.389,0,0,0-.5,2.335,7.044,7.044,0,0,1-.523,2.323c-.491,1.29-1.116,2.656-1.476,3.97-.335.649-.437,1.37-.828,2.028a5.729,5.729,0,0,0-.368,2.359c-.682,3.163-1.4,6.914-5,7.935a5.986,5.986,0,0,1-4.909-.583A8.58,8.58,0,0,1,75.3,149.68c-.127-.37-.174-.759-.312-1.116-.233-.571-.1-.757-.085-1.323a4.745,4.745,0,0,0-.878-2.838,36.33,36.33,0,0,0-1.7-4.453c-.229-.793-.524-1.642-.708-2.491a2.93,2.93,0,0,0,.118-1.552c-.13-.713-.687-1.224-.66-2.067a7.705,7.705,0,0,0-.023-1.121,2.064,2.064,0,0,0,.415-.746,2.722,2.722,0,0,0,.184-.873c.214-.7-.406-1.385.127-1.986a9.858,9.858,0,0,1,2.076-3.437,11.036,11.036,0,0,1,3.054-2.274,4.488,4.488,0,0,1,.528-.257,9.891,9.891,0,0,1,2.748-.792,4.56,4.56,0,0,1,.724-.108,8.814,8.814,0,0,1,2.486.111" transform="translate(3416.461 -260.174)"/>
      <path id="Path_147" data-name="Path 147" class="cls-2" d="M183.816,126.163a2.923,2.923,0,0,0,1.656,2.864,3.015,3.015,0,0,0,2.041.1,3.889,3.889,0,0,0,2.481-1.908,6.775,6.775,0,0,1-.082,1.342,3.079,3.079,0,0,1-.462.936,5.185,5.185,0,0,0-2.932.556,4.98,4.98,0,0,0-1.116.833,2.862,2.862,0,0,1-.582-.366,5.019,5.019,0,0,1-1.691-3.93c.194-.3.554-.533.694-.865Z" transform="translate(3323.837 -263.074)"/>
      <path id="Path_148" data-name="Path 148" class="cls-1" d="M89.839,128.037a10.949,10.949,0,0,1,3.218,3,5.434,5.434,0,0,0,.377.585c2.248,3.831,1.347,8.577-.217,12.49a45.4,45.4,0,0,0-2.375,8.029c-.495,2.679-1.535,5.89-4.48,6.656a5.043,5.043,0,0,1-5.128-1.286,4.175,4.175,0,0,1-.974-1.307,12.575,12.575,0,0,1-1.54-4.883,40.525,40.525,0,0,0-2.536-7.879,19.687,19.687,0,0,1-1.288-6.378,9.985,9.985,0,0,1,1.611-5.822,10.653,10.653,0,0,1,6.86-4.456,9.622,9.622,0,0,1,3.573.158,18.986,18.986,0,0,1,2.9,1.09" transform="translate(3413.285 -263.858)"/>
      <path id="Path_149" data-name="Path 149" class="cls-2" d="M48.889,127.326c-.038.288-.076.531-.139.9a4.673,4.673,0,0,1-2.427,3.218,4.993,4.993,0,0,0-.437-.352,5.24,5.24,0,0,0-3.567-1.068,3.4,3.4,0,0,1-.47-2.087l.024-.066c.01.012.13.181.13.191a3.859,3.859,0,0,0,2.6,1.838l.144.036a3.741,3.741,0,0,0,2.083-.316c.491-.179.712-.63.986-1.069l.035-.076a4.313,4.313,0,0,0,.271-1.384c.005-.233.043-.554.024-.71a7.613,7.613,0,0,0,.746.946" transform="translate(3440.604 -263.62)"/>
      <path id="Path_150" data-name="Path 150" class="cls-4" d="M175.655,132.816a5.557,5.557,0,0,0,2.359,3.81,3.937,3.937,0,0,0-.528.924,11.573,11.573,0,0,0-3.036-4.446,3.542,3.542,0,0,0,1.1-.734c.153.092.028.278.1.446" transform="translate(3331.01 -268.57)"/>
      <path id="Path_151" data-name="Path 151" class="cls-4" d="M72.957,133.306l0,.111A10.144,10.144,0,0,0,70,137.892l0,.056-.613-1.033c.115-.2.394-.248.575-.422a5.019,5.019,0,0,0,1.982-3.793,6.511,6.511,0,0,0,1.01.606" transform="translate(3417.833 -268.843)"/>
      <path id="Path_152" data-name="Path 152" class="cls-2" d="M196.507,149.6a4.672,4.672,0,0,1,2.75,1.986,7.39,7.39,0,0,1,.9,4.8h-.033a8.868,8.868,0,0,1-.9,2.837c-1.2,2.609-4.321,4.06-5.3,6.874a2.676,2.676,0,0,0-.264,1.05l-.083-.269a3.567,3.567,0,0,1,.417-3.18c.837-.762,1.967-1.2,2.814-1.923a7.407,7.407,0,0,0,2.8-4.211,8.55,8.55,0,0,1-.462.891l.033.045a8.192,8.192,0,0,1-3.569,3.685l-.214.108a37.459,37.459,0,0,1-4.59,1.345c1.285-1.5,3.522-1.8,5.26-2.665a5.907,5.907,0,0,0,2.885-2.81l-.033-.023a7.318,7.318,0,0,1-4.678,3.064c-.59.1-1.111.568-1.752.377a6.267,6.267,0,0,1-.956-.517l-.109-.069a3.581,3.581,0,0,0,1.314-.142,3.659,3.659,0,0,1-1.559-.908,2.16,2.16,0,0,1,.153-2.163,1.7,1.7,0,0,0,1.082,1.564c.582.344,1.554.085,2.09.507a3.761,3.761,0,0,0,3.746-1.3,6.1,6.1,0,0,0,1.507-2.7,3.068,3.068,0,0,0,.2-.941c.05-.344.036-.755.054-1.076-.021-.056-.089-.035-.122-.036a6.325,6.325,0,0,1-2.227,4.921c-.878.649-2.212,1.279-3.343.6-.33-.184-.413-.474-.686-.769.366.052.984.241,1.323-.064a2.661,2.661,0,0,0,2.953-.531l0-.089c-.246.106-.505.3-.819.429a2.883,2.883,0,0,1-2.632-.606c.168-.075.432.052.677.014a4.047,4.047,0,0,0,3.63-2.186,3.766,3.766,0,0,0,.45-1.446,3.029,3.029,0,0,0-.262-1.96,2.409,2.409,0,0,0-.644-1.146c-.023-.012-.045.01-.068.021a5.646,5.646,0,0,1,.708,2.5,4,4,0,0,1-1.515,3.125l-.135.087a6.969,6.969,0,0,0,.618-2.121,3.333,3.333,0,0,0-.453-1.863,3.78,3.78,0,0,0-.991-.974,2.689,2.689,0,0,0-2.262-.22,2.043,2.043,0,0,0-1.259,1.375,2.85,2.85,0,0,0,.318,1.949,1.181,1.181,0,0,0,.917.273.4.4,0,0,0,.269-.139,2.058,2.058,0,0,1-.729-.191,1.216,1.216,0,0,1-.264-.7,1.1,1.1,0,0,1,.38-.748,1.316,1.316,0,0,1,1.378-.04,1.412,1.412,0,0,1,.561,1.465,1.95,1.95,0,0,1-1.526,1.382,3.005,3.005,0,0,1-2.909-1.722,3.507,3.507,0,0,1,.437-3.168,3.982,3.982,0,0,1,3.724-1.861v-.033a2.419,2.419,0,0,1,1,.234" transform="translate(3317.49 -282.619)"/>
      <path id="Path_153" data-name="Path 153" class="cls-3" d="M84.47,134.48a10.053,10.053,0,0,1,8-4.9c3.59-.132,6.574,1.769,8.536,4.951a36.136,36.136,0,0,0-5.055-1.118c-.111-.014-.21-.049-.321-.061-.432-.052-.854-.106-1.286-.135-.366-.04-.72-.036-1.087-.054a24.55,24.55,0,0,0-6.643.672c-.1.021-.212.052-.312.083a14.369,14.369,0,0,0-1.831.562" transform="translate(3405.371 -266.258)"/>
      <g id="Group_11" data-name="Group 11" transform="translate(3488.801 -133.129)">
        <g id="Group_10" data-name="Group 10" class="cls-5">
          <path id="Path_154" data-name="Path 154" class="cls-6" d="M77.85,154.088l18.71.359.116-6.1-18.708-.359Z" transform="translate(-77.959 -148.349)"/>
        </g>
      </g>
      <path id="Path_156" data-name="Path 156" class="cls-3" d="M96.923,174.738a16.4,16.4,0,0,1-.437,3.994c-.009.019-.023.1-.038.094-.764-.276-1.712-.573-2.521-.773a25.181,25.181,0,0,0-14.1.319l-1.116.29a15,15,0,0,1-.378-4c3.477-1.168,8.268-2.045,12.023-1.517a39.547,39.547,0,0,1,6.569,1.6" transform="translate(3410.469 -302.134)"/>
      <path id="Path_157" data-name="Path 157" class="cls-2" d="M24.955,149.409a3.777,3.777,0,0,1,2.953,1.811l.023-.033a3.335,3.335,0,0,1,.267,3.448,2.5,2.5,0,0,1-1.009,1.069,2.67,2.67,0,0,1-2.038.283,1.866,1.866,0,0,1-1.309-1.292,1.507,1.507,0,0,1,.708-1.62.827.827,0,0,1,.257-.083,1.63,1.63,0,0,1,1.333.536,1.167,1.167,0,0,1,0,1.1c-.161.319-.495.358-.8.4-.035.076.066.078.087.113l.144.036a1.238,1.238,0,0,0,1.068-.691,2.61,2.61,0,0,0-.017-1.955,2.692,2.692,0,0,0-.894-.917,2.751,2.751,0,0,0-2.986.531,3.2,3.2,0,0,0-.84,1.505,4.626,4.626,0,0,0,.66,3.244c-.066-.068-.962-.785-.962-.785a5.061,5.061,0,0,1-.877-1.76,2.8,2.8,0,0,1-.04-.79,5.258,5.258,0,0,1,.63-2.21c.035-.066.047-.154,0-.177-.144-.036-.224.128-.318.349a6.656,6.656,0,0,0-.573,2.644,2.043,2.043,0,0,0,.111.613,4.265,4.265,0,0,0,.816,1.482,3.769,3.769,0,0,0,4,1.443,2.307,2.307,0,0,1-2.378.687,3.321,3.321,0,0,1-1.505-.873l-.057.054a3.542,3.542,0,0,0,2.375,1.3,2.6,2.6,0,0,0,1.016-.269,6.574,6.574,0,0,0,1.321.024,2.05,2.05,0,0,1-1.4,1.083,4.233,4.233,0,0,1-3.8-2.293,7.723,7.723,0,0,1-.429-.786,5.66,5.66,0,0,1-.556-2.344c-.007-.234.1-.6,0-.621s-.177.562-.191.686a5.515,5.515,0,0,0,.163,1.38,15.294,15.294,0,0,0,.764,1.857,6.592,6.592,0,0,0,1.809,1.868c.233.071.4.3.6.366a2.617,2.617,0,0,0,2.838-.3,4.137,4.137,0,0,0,1.226-.2c.3-.172.864-.538.958-.793s.347-.726.252-.95a2.138,2.138,0,0,1,.222,2.347,2.183,2.183,0,0,1-1.863,1.042c0,.122.122.014.165.092.5.043,1.014-.148,1.5-.149a1.994,1.994,0,0,1-2.064.516,7.6,7.6,0,0,1-4.821-2.3L21.4,159a1.022,1.022,0,0,0,.2.5,6.591,6.591,0,0,0,1.257,1.068,9.153,9.153,0,0,0,3.56,1.356,5.4,5.4,0,0,1,2.316,1.422l.318.262c-.3-.05-.675-.135-.852-.139s-.444.024-.5.012a16.977,16.977,0,0,1-4.484-1.852,8.881,8.881,0,0,1-.734-.547,7.693,7.693,0,0,1-1.1-1.331c-1.043-1.208-1.068-2.22-1.236-2.179a3.186,3.186,0,0,0,.493,1.542,27.385,27.385,0,0,0,1.724,2.154,2.1,2.1,0,0,0,.384.318,14.173,14.173,0,0,0,2.448,1.479,3.144,3.144,0,0,1,1.147,2.732,9.115,9.115,0,0,0-.2,1.229,7.949,7.949,0,0,0-.7-1.79l-.023.023c.068-.087-.163-.181-.194-.314-.762-1.337-2.036-2.106-3-3.244l-.087-.09-.91-1.217a6.968,6.968,0,0,1-.507-.766,12.988,12.988,0,0,1-1.033-2.908,8.455,8.455,0,0,1-.115-2.734,4.981,4.981,0,0,1,.184-.918,6.564,6.564,0,0,1,1.536-2.514l.123-.1a6.427,6.427,0,0,1,.977-.615l.113-.054a3.849,3.849,0,0,1,2.451-.38" transform="translate(3459.06 -282.599)"/>
      <path id="Path_158" data-name="Path 158" class="cls-4" d="M200.562,164.3a3.4,3.4,0,0,1-.241,3.361,1.831,1.831,0,0,1-.892.793c-.9.071-1.748.266-2.47-.337l-.057.054a3.178,3.178,0,0,0,1.085,1.331c-.557.056-1.2.066-1.479-.495-.021-.035-.066-.024-.089-.024-.1.031-.047.132-.071.2a5.554,5.554,0,0,0,.6,1.267,1.933,1.933,0,0,1-1.653-.7,1.4,1.4,0,0,1-.038-1.522l.273-.339c-.222-.026-.47.191-.616.278a4.881,4.881,0,0,0,.082-1.331,3.329,3.329,0,0,0,2.869.932,2.468,2.468,0,0,0,1.76-1.988,2.023,2.023,0,0,0-.866-1.772,1.685,1.685,0,0,0-1.229-.179,2.245,2.245,0,0,0-.878.661,1.676,1.676,0,0,1,.712-1.219c.259-.161.047-.144.628-.3a2.778,2.778,0,0,1,2.574,1.326" transform="translate(3314.102 -293.841)"/>
      <path id="Path_159" data-name="Path 159" class="cls-4" d="M39.257,163.809a2.859,2.859,0,0,1,.273.882,1.632,1.632,0,0,0-1.064-.72,1.815,1.815,0,0,0-1.535.67,1.88,1.88,0,0,0-.3,1.838,2.545,2.545,0,0,0,2.338,1.467,3.126,3.126,0,0,0,2.094-.915l.089.057a2.072,2.072,0,0,0,.066,1.168c-.219-.149-.484-.187-.693-.335a2.048,2.048,0,0,1,.333.573,1.44,1.44,0,0,1-.116,1.42,1.87,1.87,0,0,1-1.38.717l-.179.019a3.89,3.89,0,0,0,.545-1.222,1.336,1.336,0,0,1-.939.293l-.566-.01c.493-.224,1.012-1.269,1.059-1.335a3.77,3.77,0,0,1-2.781.224,4.205,4.205,0,0,1-1.13-1.844l-.031-.146a2.941,2.941,0,0,1,.677-2.83,2.4,2.4,0,0,1,2.245-.634,1.967,1.967,0,0,1,1,.661" transform="translate(3446.054 -293.962)"/>
      <g id="Group_13" data-name="Group 13" transform="translate(3489.179 -124.968)">
        <g id="Group_12" data-name="Group 12" class="cls-7">
          <path id="Path_160" data-name="Path 160" class="cls-8" d="M80.07,200.791l17.832.344.111-5.7-17.833-.345Z" transform="translate(-80.172 -195.434)"/>
        </g>
      </g>
      <path id="Path_162" data-name="Path 162" class="cls-4" d="M67.869,213.05l.137.4a45.883,45.883,0,0,0,1.76,4.9,12.6,12.6,0,0,0-2.439-1.969,5.2,5.2,0,0,0-.547-.422,3.53,3.53,0,0,1,1.911.481l.035-.033a6.783,6.783,0,0,0-2.177-2.274l0-.045a2.646,2.646,0,0,0,1.167-1.177c-.142-.125-.436.115-.521-.1.125-.109.335-.127.384-.314.175.094.181.371.288.55" transform="translate(3420.18 -334.79)"/>
      <path id="Path_163" data-name="Path 163" class="cls-4" d="M182.685,216.326a6.541,6.541,0,0,0-2.321,2.288l.021.033c.545-.578,1.342-.507,2.035-.694l.054.057a11.981,11.981,0,0,0-3.264,2.781c.089-.609.547-1.323.672-2.041a12.673,12.673,0,0,0,1.274-3.3l.118-.352a5.411,5.411,0,0,0,1.411,1.226" transform="translate(3327.077 -336.938)"/>
      <path id="Path_164" data-name="Path 164" class="cls-3" d="M102.905,220.5c.01,0,.023.012.033.012-.467,1.153-.887,2.359-1.229,3.425a22.342,22.342,0,0,0-7.577-1,19.924,19.924,0,0,0-5.362,1.026c-.366-1.193-.863-2.5-1.33-3.647l.012-.01a.293.293,0,0,1,.021.078,21.045,21.045,0,0,1,15.459.12c.009-.023-.038.016-.026-.007" transform="translate(3402.916 -340.141)"/>
      <path id="Path_165" data-name="Path 165" class="cls-2" d="M179.593,230.834a20.858,20.858,0,0,0-2.534,2.429,5.343,5.343,0,0,0-.538.845,3.768,3.768,0,0,0-.293,3.126,1.568,1.568,0,0,0,.852.76,2,2,0,0,0,1.411-.007,1.891,1.891,0,0,0,.957-1.259c.03-.41.021-1.055-.217-.826s-.116.887-.451.991a1.126,1.126,0,0,1-.965-.052,1.018,1.018,0,0,1-.458-1.009,1.278,1.278,0,0,1,.838-.861,1,1,0,0,1,.621.045,1.939,1.939,0,0,1,1.012.519,1.112,1.112,0,0,1,.311.628,3.137,3.137,0,0,1-.132,1.675,3.655,3.655,0,0,1-2.493,1.385c-.667,0-.224.106-.92-.073a3.42,3.42,0,0,1-2.2-2.264c-.281-2.139,1-3.857,2.477-5.295.179-.062.34-.349.552-.434.417-.281.9-.639,1.305-.908l-.033.021a5.261,5.261,0,0,1,1.477-.583,3.188,3.188,0,0,0-.58,1.144" transform="translate(3331.089 -348.996)"/>
      <path id="Path_166" data-name="Path 166" class="cls-2" d="M59.951,233.015a5.234,5.234,0,0,1,2.267,4.6,3.476,3.476,0,0,1-2.474,2.718,2.791,2.791,0,0,1-2.731-.686,2.367,2.367,0,0,1-.5-2.764,1.56,1.56,0,0,1,.826-.8,1.5,1.5,0,0,1,1.495.229,1.339,1.339,0,0,1,.325,1.061A.626.626,0,0,1,58.8,238a1.228,1.228,0,0,1-1.142-.056c-.285-.227-.2-.66-.339-.929a.392.392,0,0,0-.24.318,1.758,1.758,0,0,0,.5,1.521,2.447,2.447,0,0,0,1.568.451,1.467,1.467,0,0,0,.819-.429,1.815,1.815,0,0,0,.514-.689,4.211,4.211,0,0,0,.182-1.429,2.462,2.462,0,0,0-.057-.467,3.2,3.2,0,0,0-.394-.852,14.159,14.159,0,0,0-3.113-3.359,6.443,6.443,0,0,0-.568-1.043c1.451.061,2.283,1.266,3.415,1.976" transform="translate(3428.676 -350.111)"/>
      <g id="Group_15" data-name="Group 15" transform="translate(3491.707 -117.25)">
        <g id="Group_14" data-name="Group 14" class="cls-9">
          <path id="Path_167" data-name="Path 167" class="cls-10" d="M94.69,245.2l12.993.252.1-5.109-13-.252Z" transform="translate(-94.782 -240.34)"/>
        </g>
      </g>
      <path id="Path_169" data-name="Path 169" class="cls-3" d="M111.408,265.227a15.5,15.5,0,0,1-.887,3.691,13.628,13.628,0,0,0-9.077-.073,27.861,27.861,0,0,1-1.043-3.635,16.282,16.282,0,0,1,8.313-.588c.939.219,1.76.312,2.687.608.012,0-.076,0,.007,0" transform="translate(3392.206 -377.626)"/>
      <path id="Path_170" data-name="Path 170" class="cls-4" d="M172.09,275.083a11.974,11.974,0,0,0-1.3.653c.089-.576.257-1.227.413-1.835l.056-.021a2.344,2.344,0,0,0,.832,1.2" transform="translate(3334.035 -385.515)"/>
      <path id="Path_171" data-name="Path 171" class="cls-4" d="M87.9,274.975a3.507,3.507,0,0,0-1.309-.691,3.177,3.177,0,0,0,.849-1.394,12.05,12.05,0,0,1,.46,2.085" transform="translate(3403.618 -384.696)"/>
      <g id="Group_17" data-name="Group 17" transform="translate(3493.632 -109.525)">
        <g id="Group_16" data-name="Group 16" class="cls-11">
          <path id="Path_172" data-name="Path 172" class="cls-12" d="M105.85,289.384l9.171.175.083-4.354-9.171-.175Z" transform="translate(-105.93 -285.204)"/>
        </g>
      </g>
      <path id="Path_174" data-name="Path 174" class="cls-2" d="M167.744,282.945a3.62,3.62,0,0,0,2.654.562c.149.314.4.585.538.887-.113.109.1.1.03.179a3.3,3.3,0,0,0-3.455.023,2.721,2.721,0,0,0-.856.661c-.406.325-.415.837-.691,1.241a4.276,4.276,0,0,0-.021,2.243l.05.234c-.285-.2-.5-.543-.741-.746-.17-.948-.555-2.288-.052-3.078.172-.319.285-1.493,1-1.835a2.226,2.226,0,0,1,1.4-.507Z" transform="translate(3338.86 -392.889)"/>
      <path id="Path_175" data-name="Path 175" class="cls-2" d="M70.446,283.311c.021.056.337.929.444,1.12a7.088,7.088,0,0,0,.587,1.255,8.757,8.757,0,0,1-.281,1.949,8.232,8.232,0,0,0-.823.684,5.684,5.684,0,0,0-.023-1.689,3.768,3.768,0,0,0-1.883-2.547,4,4,0,0,0-3.067.118c.118-.365.431-1.057.42-1.036a6.586,6.586,0,0,0,1.108.121,3.46,3.46,0,0,0,1.859-.786,2.435,2.435,0,0,1,1.66.811" transform="translate(3421.13 -392.631)"/>
      <path id="Path_176" data-name="Path 176" class="cls-2" d="M75.791,295.939c-.58.7-1.073,1.469-1.651,2.113a2.024,2.024,0,0,0-.285-.182c-.151-.259-.826-.361-.486-.71.569-.7,1-1.269,1.647-1.979a2.794,2.794,0,0,1,.774.759" transform="translate(3414.622 -403.117)"/>
      <path id="Path_177" data-name="Path 177" class="cls-2" d="M57.138,298.29c.1,0,.21.026.351.217a.376.376,0,0,1-.007.377c-.092.155-.236.128-.378.082-.3-.1.075-.41-.17-.415a.373.373,0,0,0-.13.443,5.529,5.529,0,0,0,1.293.946c.67.4,2.1,1.484,3.177,2.326l.207.226c.182.359.332.684.09,1.057-.156.085-.337.2-.524.113-.177-.069-.2-.215-.293-.328.047-.132.017-.278.151-.375l.234-.029c-.012.033.031.078.066.057.089-.021.054.123.142.125.045-.056.024-.155.038-.233-1.114-.943-2.389-1.712-3.493-2.611-.472-.286-1.165-.689-1.286-1.279-.03-.234.023-.576.279-.661.076-.073.153-.061.253-.036" transform="translate(3428.405 -405.672)"/>
      <path id="Path_178" data-name="Path 178" class="cls-4" d="M159.73,303.74a4.048,4.048,0,0,0,.328,1.439l-.988-.63c.1-.243.375-.437.512-.668a.233.233,0,0,1,.148-.141" transform="translate(3343.721 -410.191)"/>
      <path id="Path_179" data-name="Path 179" class="cls-4" d="M101.538,303.166a5.777,5.777,0,0,0-1,.547,9.829,9.829,0,0,0,.231-1.583c.193.269.538.776.767,1.036" transform="translate(3392.09 -408.861)"/>
      <path id="Path_180" data-name="Path 180" class="cls-2" d="M71.3,308.656c.031.068-.135.064-.148.175-.495-.286-.984-.785-1.413-1.038.024-.078-.05-.245.094-.253.526.342.93.739,1.467,1.116" transform="translate(3417.543 -413.332)"/>
      <path id="Path_181" data-name="Path 181" class="cls-2" d="M94.467,310.11c.427.3.887.616,1.326.925a6.271,6.271,0,0,0,4.42.618,8.314,8.314,0,0,0,2.151-.925c.312-.127.524-.689.953-.425a6.489,6.489,0,0,1,2.408,1.878,1.52,1.52,0,0,0-.363.349,5.252,5.252,0,0,0-.59-.444,1.9,1.9,0,0,0-.785-.17,1.944,1.944,0,0,0-.467.014,2.914,2.914,0,0,0-2.048,1.437,2.538,2.538,0,0,0,.167,2.314,3.161,3.161,0,0,0,.719.779,1.446,1.446,0,0,1-.632-.057,4.338,4.338,0,0,1-2.993-3.245,2.283,2.283,0,0,1-.12.42,3.918,3.918,0,0,1-3.734,2.993,2.224,2.224,0,0,0,1.371-2.04l0-.121a2.59,2.59,0,0,0-.95-2.04,2.775,2.775,0,0,0-2.682-.274c-.113.076-.226.161-.3.217a5.479,5.479,0,0,0-.606-.222,1.9,1.9,0,0,1,.42-.47,6.868,6.868,0,0,1,2.295-1.489Z" transform="translate(3399.387 -415.455)"/>
      <path id="Path_182" data-name="Path 182" class="cls-2" d="M54.736,315.042c.229.193.592.366.71.58a17.62,17.62,0,0,1-1.972,2.672l.033.035c-.427.259-.686,1.009-1.337.8-.109-.08-.286-.149-.316-.306-.047-.479.417-.892.635-1.3a23.581,23.581,0,0,1,2.1-2.481Z" transform="translate(3432.327 -419.53)"/>
      <path id="Path_183" data-name="Path 183" class="cls-4" d="M153.973,334.515a1.418,1.418,0,0,1-.113,1.264,1.584,1.584,0,0,1-2.55-.283,7.117,7.117,0,0,1,1.609.109.7.7,0,0,0,.72-.509.609.609,0,0,0-.311-.639.723.723,0,0,0-.621-.012.62.62,0,0,0-.2.219.575.575,0,0,1,.354-.516.814.814,0,0,1,1.116.366" transform="translate(3350.134 -435.233)"/>
      <path id="Path_184" data-name="Path 184" class="cls-2" d="M185.637,305.651c.063.245.365.719.448.963l.087.113a3.085,3.085,0,0,0,2.271,1.476,2.524,2.524,0,0,0,.323-.028,1.636,1.636,0,0,1-1.375.441c-.464-.109-.877-.649-1.182-.922a3.931,3.931,0,0,0,.311.616,1.459,1.459,0,0,1-.448,1.946,2.223,2.223,0,0,0-.325-2.172c-.642-.7-1.7-1.276-2.342-1.856l-.283-.293a1.917,1.917,0,0,1-.642-1.79c.024-.066.035-.076.069-.155a1.5,1.5,0,0,1,.967-.592c1.187.024,1.76,1.411,2.121,2.252" transform="translate(3324.401 -409.91)"/>
      <path id="Path_185" data-name="Path 185" class="cls-2" d="M208.621,333.758c.168-.1.774.726.727.88.031.123-.082.21-.182.252-.524.09-.745-.559-.984-.785a1.413,1.413,0,0,0-.132-.635,1.737,1.737,0,0,0,.571.288" transform="translate(3303.243 -434.76)"/>
      <path id="Path_186" data-name="Path 186" class="cls-2" d="M151.012,334.915a.6.6,0,0,0,.222.549c-.144-.024-.311-.028-.465-.042l-.7-.047a1.9,1.9,0,0,1-.127-.88,4.09,4.09,0,0,0,1.436-.194.953.953,0,0,0-.366.615" transform="translate(3351.269 -435.446)"/>
      <path id="Path_187" data-name="Path 187" class="cls-4" d="M98.786,333.965l.03.167a.719.719,0,0,0-.785-.182.6.6,0,0,0-.356.637.646.646,0,0,0,.533.554,1.314,1.314,0,0,0,.79-.1c.368-.082.755-.019,1.047-.1a1.686,1.686,0,0,1-1.606.936,1.3,1.3,0,0,1-1.017-1.975c.238-.347,1.142-.562,1.364.062" transform="translate(3394.829 -434.841)"/>
      <path id="Path_188" data-name="Path 188" class="cls-2" d="M107.789,334.433a2.392,2.392,0,0,1-.148.786,4.606,4.606,0,0,0-1.281.153.86.86,0,0,0,.214-.752.881.881,0,0,0-.181-.481,6.622,6.622,0,0,1,1.4.293" transform="translate(3387.281 -435.314)"/>
      <path id="Path_189" data-name="Path 189" class="cls-2" d="M47.774,339.148a.508.508,0,0,1,.076.613.561.561,0,0,1-.615.2c-.165-.047-.252-.227-.316-.351-.1-.179.04-.344.12-.476a.57.57,0,0,1,.734.014" transform="translate(3436.43 -439.336)"/>
      <path id="Path_190" data-name="Path 190" class="cls-2" d="M120.6,348.507c.089.057.186.16.319.151a.909.909,0,0,1-.347.182,1.251,1.251,0,0,1-1.229-.2,1.71,1.71,0,0,0-.656-1.724l.064.1a2.064,2.064,0,0,1,.264,1.338,2.36,2.36,0,0,1-.214.7,16.134,16.134,0,0,0-.805,1.495,2.969,2.969,0,0,0-.16-.325,3.619,3.619,0,0,1-.984-2.552,1.627,1.627,0,0,1,.269-.762,1.838,1.838,0,0,0-.691,1.286,1.658,1.658,0,0,0,.078.523c-.363.382-1.2.132-1.531-.085,1.172-.255,1.144-1.745,2.361-2.031a2,2,0,0,1,2,.437,7.317,7.317,0,0,0,1.26,1.47" transform="translate(3380.157 -445.536)"/>
      <path id="Path_191" data-name="Path 191" class="cls-2" d="M88.457,77.09a2.094,2.094,0,0,1-.793.8c.321.05.385.163.812.505a13.183,13.183,0,0,0-2.708.493.727.727,0,0,0-.158-1,.789.789,0,0,0-.431-.163,19.6,19.6,0,0,1,3.277-.627" transform="translate(3404.784 -222.886)"/>
      <path id="Path_192" data-name="Path 192" class="cls-13" d="M68.89,216.092l0-.012.01,0Z" transform="translate(3418.246 -337.748)"/>
      <path id="Path_193" data-name="Path 193" class="cls-2" d="M129.646,6.972a.462.462,0,0,0,.476-.457.471.471,0,0,0-.943-.019.463.463,0,0,0,.467.476" transform="translate(3368.423 -164.17)"/>
      <path id="Path_194" data-name="Path 194" class="cls-2" d="M130.3,1.555a.377.377,0,0,0,.385-.37.385.385,0,0,0-.37-.4.393.393,0,0,0-.4.382.382.382,0,0,0,.38.384" transform="translate(3367.811 -159.831)"/>
      <path id="Path_195" data-name="Path 195" class="cls-2" d="M135.869,7.3a.389.389,0,1,0-.37-.4.386.386,0,0,0,.37.4" transform="translate(3363.199 -164.566)"/>
      <path id="Path_196" data-name="Path 196" class="cls-2" d="M124.37,7.265a.383.383,0,0,0,.016-.766.386.386,0,0,0-.4.382.382.382,0,0,0,.38.384" transform="translate(3372.711 -164.55)"/>
      <path id="Path_197" data-name="Path 197" class="cls-2" d="M127.179,20.239a1.005,1.005,0,1,1-1.029.981,1.011,1.011,0,0,1,1.029-.981" transform="translate(3370.927 -175.904)"/>
      <path id="Path_198" data-name="Path 198" class="cls-2" d="M130.625,12.11h0a.265.265,0,0,1,.262.271l-.012.677a.265.265,0,0,1-.273.262.272.272,0,0,1-.262-.271l.012-.677a.273.273,0,0,1,.273-.262" transform="translate(3367.463 -169.186)"/>
      <path id="Path_199" data-name="Path 199" class="cls-14" d="M53.428,71.43a.494.494,0,0,1-.019.988.5.5,0,0,1-.479-.509.493.493,0,0,1,.5-.479" transform="translate(3431.436 -218.208)"/>
      <path id="Path_200" data-name="Path 200" class="cls-14" d="M73.508,60.179a.517.517,0,1,1-.519.5.512.512,0,0,1,.519-.5" transform="translate(3414.858 -208.911)"/>
      <path id="Path_201" data-name="Path 201" class="cls-14" d="M99.381,52.549a.511.511,0,0,1,.5.521.517.517,0,1,1-1.033-.019.51.51,0,0,1,.531-.5" transform="translate(3393.487 -202.605)"/>
      <path id="Path_202" data-name="Path 202" class="cls-14" d="M159.823,52.74a.517.517,0,0,1-.021,1.033.517.517,0,1,1,.021-1.033" transform="translate(3343.539 -202.763)"/>
      <path id="Path_203" data-name="Path 203" class="cls-14" d="M185.723,60.34a.517.517,0,1,1-.533.512.517.517,0,0,1,.533-.512" transform="translate(3322.135 -209.043)"/>
      <path id="Path_204" data-name="Path 204" class="cls-14" d="M206.241,71.42a.517.517,0,1,1-.531.5.517.517,0,0,1,.531-.5" transform="translate(3305.177 -218.2)"/>
      <path id="Path_205" data-name="Path 205" class="cls-14" d="M176.808,81.739a.595.595,0,1,1-.6.578.6.6,0,0,1,.6-.578" transform="translate(3329.557 -226.728)"/>
      <path id="Path_206" data-name="Path 206" class="cls-14" d="M124.043,51.429a.616.616,0,1,1-.623.6.619.619,0,0,1,.623-.6" transform="translate(3373.183 -201.68)"/>
      <path id="Path_207" data-name="Path 207" class="cls-14" d="M129.2,43.27a.622.622,0,1,1-.634.609.621.621,0,0,1,.634-.609" transform="translate(3368.927 -194.937)"/>
      <path id="Path_208" data-name="Path 208" class="cls-14" d="M134.6,50.859a.616.616,0,1,1-.024,1.233.616.616,0,0,1,.024-1.233" transform="translate(3364.456 -201.209)"/>
      <path id="Path_209" data-name="Path 209" class="cls-14" d="M126.953,75.458c.611.012,1.1.344,1.1.743s-.514.7-1.123.689-1.1-.344-1.1-.731.514-.713,1.123-.7" transform="translate(3371.191 -221.537)"/>
      <path id="Path_210" data-name="Path 210" class="cls-14" d="M81.836,81.9a.568.568,0,0,1,.555.576.566.566,0,0,1-1.132-.021.568.568,0,0,1,.576-.556" transform="translate(3408.024 -226.861)"/>
      <path id="Path_211" data-name="Path 211" class="cls-2" d="M98.245,105.49a.48.48,0,0,0-.476.469.466.466,0,1,0,.932.017.479.479,0,0,0-.457-.486" transform="translate(3394.38 -246.356)"/>
      <path id="Path_212" data-name="Path 212" class="cls-2" d="M65.71,133.549a.678.678,0,1,1-.691.665.674.674,0,0,1,.691-.665" transform="translate(3421.445 -269.545)"/>
      <path id="Path_213" data-name="Path 213" class="cls-2" d="M129.216,337.639a.622.622,0,1,1-.656.609.632.632,0,0,1,.656-.609" transform="translate(3368.935 -438.206)"/>
      <path id="Path_214" data-name="Path 214" class="cls-2" d="M159.351,337.49a.344.344,0,1,1-.012.687.344.344,0,1,1,.012-.687" transform="translate(3343.787 -438.082)"/>
      <path id="Path_215" data-name="Path 215" class="cls-2" d="M101.723,337.03a.344.344,0,1,1-.373.337.358.358,0,0,1,.373-.337" transform="translate(3391.421 -437.702)"/>
      <path id="Path_216" data-name="Path 216" class="cls-2" d="M29.222,89.9a.445.445,0,1,1-.443.437.435.435,0,0,1,.443-.437" transform="translate(3451.393 -233.472)"/>
      <path id="Path_217" data-name="Path 217" class="cls-2" d="M215.821,342.29a.417.417,0,1,1-.016.833.417.417,0,1,1,.016-.833" transform="translate(3297.186 -442.049)"/>
      <path id="Path_218" data-name="Path 218" class="cls-2" d="M178.107,296.35a.666.666,0,0,1,.642.679.656.656,0,0,1-.668.642.647.647,0,0,1-.632-.668.66.66,0,0,1,.658-.653" transform="translate(3328.532 -404.084)"/>
    </g>
    <g id="Group_157" data-name="Group 157" transform="translate(83 37.475)">
      <path id="Path_350" data-name="Path 350" class="cls-15" d="M75.3,2.352a.5.5,0,0,1,.371-.573,7.9,7.9,0,0,1,1.78-.2c3.529,0,6.786.371,9.58,3.2a9.9,9.9,0,0,1,2.793,7.158c0,2.623-.774,5.347-2.321,6.786A9.919,9.919,0,0,1,80.576,21.3c-3.5,0-4.535-.6-4.906-1.145a5.425,5.425,0,0,1-.333-2.051c-.031-.542-.031-3.2-.031-6.221V2.352Zm-2.693,11.5a57.564,57.564,0,0,1-.17,6.183c-.132.843-.2,1.377-.774,1.509a4.126,4.126,0,0,1-.905.132.222.222,0,0,0-.232.232c0,.17.17.232.472.232.472,0,1.176-.031,1.78-.07.6,0,1.145-.031,1.207-.031.132,0,1.145.07,2.422.17,1.277.07,2.855.17,4.132.17,5.045,0,7.7-1.981,8.976-3.3a11.429,11.429,0,0,0,3.2-8.032,10,10,0,0,0-2.894-7.258C86.318.263,80.909.534,77.953.534c-1.749,0-3.629.07-3.97.07-.17,0-2.082-.07-3.428-.07-.333,0-.472.07-.472.232A.279.279,0,0,0,70.316,1a8.215,8.215,0,0,1,1.006.07c.975.132,1.145.6,1.207,1.579.07.905.07,1.718.07,6.152v5.053Zm-19.159-.843c-.1,0-.132-.07-.1-.2L56.1,4.976c.17-.433.333-.433.5,0l2.925,7.831c.031.132.031.2-.1.2Zm-4.271,5.982c-.573,1.447-1.145,2.453-2.484,2.623-.232.031-.673.07-.874.07a.263.263,0,0,0-.271.232c0,.17.2.232.573.232,1.207,0,2.693-.1,2.995-.1.333,0,1.95.1,2.654.1.271,0,.433-.07.433-.232,0-.132-.07-.232-.3-.232h-.271c-.5,0-1.006-.2-1.006-.774a6.105,6.105,0,0,1,.433-1.919l1.679-4.573a.31.31,0,0,1,.3-.232h6.825c.17,0,.2.031.271.17l2.654,6.554a.537.537,0,0,1-.271.774c-.132.07-.2.07-.2.2,0,.17.472.17,1.045.2,2.051.07,4.233.07,4.674.07.333,0,.673-.07.673-.232s-.2-.232-.371-.232a3.943,3.943,0,0,1-1.176-.17c-.642-.2-1.447-.573-2.523-3.126C62.818,14.06,58.082,2.26,57.54,1.045,57.246.4,57.146,0,56.844,0c-.2,0-.333.17-.7,1.107ZM31.432,2.051a.355.355,0,0,1,.232-.333,12.59,12.59,0,0,1,2.12-.17c3.157,0,5.107,2.051,5.107,5.61,0,2.182-.774,3.7-1.78,4.372a3.836,3.836,0,0,1-2.221.5,10.113,10.113,0,0,1-3.258-.433.428.428,0,0,1-.2-.371V2.051Zm-2.554,11.8a57.565,57.565,0,0,1-.17,6.183c-.132.843-.2,1.377-.774,1.509a4.126,4.126,0,0,1-.905.132.229.229,0,0,0-.24.232c0,.17.17.232.472.232.905,0,2.894-.1,2.925-.1.132,0,2.02.1,3.629.1.333,0,.472-.1.472-.232a.206.206,0,0,0-.232-.232,11.827,11.827,0,0,1-1.308-.132c-.905-.132-1.076-.673-1.176-1.509-.132-1.176-.132-3.4-.132-6.152v-.673c0-.17.07-.232.2-.232l3.768.07a.438.438,0,0,1,.4.17c.642.774,1.95,2.623,3.2,4.171,1.679,2.151,2.755,3.529,4.032,4.2a5.951,5.951,0,0,0,3.157.573h1.849c.542,0,.7-.07.7-.232a.259.259,0,0,0-.271-.232,5.465,5.465,0,0,1-1.045-.1c-.735-.1-1.718-.371-3.3-1.981-1.718-1.78-3.761-4.372-6.183-7.4,2.755-2.352,3.629-4.4,3.629-6.523a5.015,5.015,0,0,0-2.051-3.9A9.684,9.684,0,0,0,34.024.549c-.905,0-3.4.07-3.7.07-.17,0-2.151-.07-3.5-.07-.333,0-.472.07-.472.232a.279.279,0,0,0,.232.232,8.214,8.214,0,0,1,1.006.07c.975.132,1.145.6,1.207,1.579.07.905.07,1.718.07,6.152v5.037ZM17.279,19.8c0,.542-.232.673-.6.874a7.486,7.486,0,0,1-3.2.542,10.535,10.535,0,0,1-7.56-2.995,11.371,11.371,0,0,1-3.126-7.9C2.793,7,4,4.442,5.718,3.126A9.369,9.369,0,0,1,11.9,1.277c3.83,0,6.082,1.145,6.825,2.221a4.191,4.191,0,0,1,.673,1.88c0,.271.031.433.2.433.2,0,.333-.132.333-.6,0-2.855.17-3.629.17-4.032,0-.132-.07-.271-.371-.271A13.007,13.007,0,0,1,17.349.6,24.91,24.91,0,0,0,12.814.132,14.867,14.867,0,0,0,4.945,1.95,10.688,10.688,0,0,0,0,11.329a10.946,10.946,0,0,0,3.529,8.133c3.3,2.793,7.5,3.057,9.75,3.057a14.993,14.993,0,0,0,6.283-1.277c.371-.2.4-.232.4-1.548V16.5c0-1.207,0-2.051.031-2.956.07-1.006.3-1.447,1.107-1.579a3.2,3.2,0,0,1,.743-.07.279.279,0,0,0,.232-.232c0-.2-.132-.232-.472-.232-.905,0-2.755.07-2.894.07-.17,0-2.151-.07-3.5-.07-.333,0-.472.031-.472.232a.279.279,0,0,0,.232.232,8.214,8.214,0,0,1,1.006.07c1.207.232,1.277.573,1.277,2.894V19.8Z"/>
      <g id="Group_156" data-name="Group 156" transform="translate(108.526)">
        <path id="Path_351" data-name="Path 351" class="cls-15" d="M333.182,13.8a58.3,58.3,0,0,1-.17,6.221c-.132.843-.2,1.385-.774,1.524a4.144,4.144,0,0,1-.913.139.235.235,0,0,0-.24.24c0,.17.17.24.472.24.913,0,2.708-.1,2.94-.1s2.027.1,3.482.1c.34,0,.472-.1.472-.24a.233.233,0,0,0-.232-.24,8.508,8.508,0,0,1-1.153-.139c-.913-.139-1.052-.673-1.153-1.524-.132-1.184-.132-3.451-.132-6.221V10.988h.132c1.424,1.687,7.676,8.287,9.03,9.332,1.285.983,2.066,1.625,3.621,1.757a18.781,18.781,0,0,0,2.066.07h1.524c.5,0,.642-.1.642-.24s-.17-.24-.371-.24a6.285,6.285,0,0,1-1.826-.41c-1.424-.573-1.757-.944-4.264-3.18-1.215-1.114-7.405-7.3-8.187-8.148.642-.712,5.718-5.579,6.461-6.252a10.442,10.442,0,0,1,3.111-2.437,4.8,4.8,0,0,1,1.656-.4c.24,0,.3-.1.3-.24s-.139-.2-.441-.2c-.743,0-2.708.07-2.871.07-.712,0-1.625-.07-2.229-.07-.2,0-.34.07-.34.2a.316.316,0,0,0,.271.271c.24.031.371.2.371.573,0,.472-.774,1.215-1.625,2.066-1.114,1.153-6.423,6.392-6.9,6.933h-.132V8.713c0-4.465,0-5.277.07-6.19.07-1.014.271-1.416,1.045-1.586a3.374,3.374,0,0,1,.743-.07.257.257,0,0,0,.24-.24c0-.17-.132-.24-.472-.24-.882,0-2.67.07-2.94.07-.17,0-2-.07-3.351-.07-.34,0-.472.07-.472.24a.3.3,0,0,0,.24.24,8.344,8.344,0,0,1,1.014.07c.983.139,1.153.611,1.215,1.586.07.913.07,1.726.07,6.19V13.8Zm-9.773-5.076c0-4.465,0-5.277.031-6.19.07-1.014.24-1.416,1.045-1.586a3.235,3.235,0,0,1,.743-.07.3.3,0,0,0,.24-.24c0-.17-.132-.24-.472-.24-.913,0-2.84.07-2.979.07-.17,0-2.027-.07-3.01-.07-.341,0-.472.07-.472.24a.257.257,0,0,0,.24.24,5.148,5.148,0,0,1,.913.1c.642.139.882.573.944,1.555.07.913.07,1.726.07,6.19V13.8c0,2.77-.031,5.037-.17,6.221-.1.843-.2,1.385-.782,1.524a4.143,4.143,0,0,1-.913.139.235.235,0,0,0-.24.24c0,.17.17.24.472.24.913,0,2.77-.1,2.94-.1.132,0,2.066.1,3.722.1.34,0,.472-.1.472-.24a.235.235,0,0,0-.24-.24,11.808,11.808,0,0,1-1.354-.139c-.882-.139-.983-.673-1.083-1.524-.132-1.184-.132-3.451-.132-6.221V8.721ZM294.121,4.666c.913,1.014,4.264,4.535,7.707,8.148,3.149,3.281,7.436,7.506,7.746,7.777,1.656,1.524,1.966,1.757,2.267,1.757.2,0,.24-.17.24-2.066l.062-16.83c0-1.726.07-2.3,1.045-2.5a3.279,3.279,0,0,1,.712-.07.341.341,0,0,0,.34-.271c0-.17-.24-.2-.542-.2-1.215,0-2.2.07-2.538.07S309.4.41,308.049.41c-.34,0-.573.031-.573.2,0,.1.031.271.24.271a9.51,9.51,0,0,1,1.455.132c.913.17,1.083.812,1.114,2.67l.3,14.408c-.913-.944-4.093-4.364-7.034-7.405-4.6-4.736-8.93-9.332-9.4-9.8-.3-.31-.8-.882-1.145-.882-.24,0-.4.3-.4,1.455V17.921c0,2.6-.1,3.382-.843,3.583a4.538,4.538,0,0,1-1.215.17.236.236,0,0,0-.24.24c0,.2.17.24.472.24,1.354,0,2.6-.1,2.871-.1s1.455.1,3.149.1c.34,0,.542-.07.542-.24a.232.232,0,0,0-.24-.24,6.811,6.811,0,0,1-1.486-.17c-.812-.2-1.083-.913-1.153-3.281Zm-22.084-.743a11.964,11.964,0,0,1-.812-2.4.478.478,0,0,1,.34-.511,3.682,3.682,0,0,1,1.083-.132.277.277,0,0,0,.3-.271c0-.132-.271-.209-.813-.209-1.153,0-2.468.07-2.77.07C269,.472,267.3.4,265.884.4c-.472,0-.774.031-.774.2a.26.26,0,0,0,.24.271,5.848,5.848,0,0,1,1.153.1c.983.24,1.385.542,2.066,2.167l7.3,17.62c.573,1.385.782,1.757,1.114,1.757.3,0,.472-.441,1.285-2.167.673-1.424,2-4.535,3.823-8.729,1.524-3.513,2.979-6.964,3.312-7.777.782-1.965,1.254-2.368,1.656-2.639a2.747,2.747,0,0,1,1.424-.34c.24,0,.34-.139.34-.271s-.17-.2-.472-.2c-.882,0-2.167.07-2.337.07-.371,0-1.726-.07-2.91-.07-.472,0-.673.07-.673.24,0,.132.17.24.34.24a3.474,3.474,0,0,1,1.014.1.6.6,0,0,1,.4.611,4.719,4.719,0,0,1-.271,1.083c-.642,2.066-4.535,11.87-6.252,15.724ZM243.8,10.446c0-6.26,3.583-9.371,8.558-9.371,4.7,0,8.891,3.621,8.891,10.516,0,8.318-5.378,9.742-8.048,9.742-5.378.008-9.4-4.186-9.4-10.887m-3.08.782c0,5.177,3.482,11.3,11.63,11.3a11.516,11.516,0,0,0,11.94-11.731c0-6.693-5.068-10.787-11.77-10.787a11.378,11.378,0,0,0-11.8,11.22m-17.24-9.3a.369.369,0,0,1,.24-.34,12.7,12.7,0,0,1,2.128-.17c3.18,0,5.138,2.066,5.138,5.649,0,2.2-.782,3.722-1.8,4.4a3.874,3.874,0,0,1-2.229.5,10.015,10.015,0,0,1-3.281-.441.411.411,0,0,1-.2-.371ZM220.9,13.8a58.3,58.3,0,0,1-.17,6.221c-.139.843-.2,1.385-.782,1.524a4.143,4.143,0,0,1-.913.139.235.235,0,0,0-.24.24c0,.17.17.24.472.24.913,0,2.91-.1,2.94-.1.132,0,2.027.1,3.652.1.34,0,.472-.1.472-.24a.213.213,0,0,0-.24-.24,10.475,10.475,0,0,1-1.316-.139c-.913-.139-1.083-.673-1.184-1.524-.132-1.184-.132-3.412-.132-6.19v-.673c0-.17.07-.24.2-.24l3.784.07a.438.438,0,0,1,.4.17c.642.774,1.965,2.639,3.211,4.194,1.687,2.167,2.77,3.552,4.055,4.225a6.03,6.03,0,0,0,3.18.573h1.857c.542,0,.712-.07.712-.24a.264.264,0,0,0-.271-.24,5.574,5.574,0,0,1-1.052-.1c-.743-.1-1.726-.371-3.312-2-1.726-1.8-3.784-4.4-6.221-7.436,2.77-2.368,3.652-4.434,3.652-6.562A5.024,5.024,0,0,0,231.6,1.648,9.74,9.74,0,0,0,226.049.395c-.913,0-3.413.07-3.722.07-.17,0-2.167-.07-3.513-.07-.34,0-.472.07-.472.24a.287.287,0,0,0,.24.24,8.455,8.455,0,0,1,1.014.07c.983.139,1.153.611,1.215,1.586.07.913.07,1.726.07,6.19V13.8Zm-17.178-2.879c0-.132.07-.2.17-.2.472,0,1.958,0,2.329.07a6.222,6.222,0,0,1,2.67.743,6.29,6.29,0,0,1,2.84,5.239c0,3.683-2.4,4.434-4.364,4.434a7.125,7.125,0,0,1-2.608-.4c-.913-.441-.913-.782-1.014-2.167-.031-.441-.031-3.892-.031-6.121V10.918Zm0-9.162c0-.17.1-.24.371-.3a8.83,8.83,0,0,1,1.524-.139c2.979,0,4.194,2.437,4.194,4.635a4.427,4.427,0,0,1-1.153,3.08c-.611.673-1.254.743-2.909.743a9.67,9.67,0,0,1-1.826-.132c-.132-.031-.2-.1-.2-.3ZM201.156,13.8a58.3,58.3,0,0,1-.17,6.221c-.139.843-.2,1.486-.782,1.586-.271.031-.642.132-.913.132-.17,0-.24.07-.24.17,0,.17.17.24.472.24.472,0,1.184-.031,1.8-.07.611,0,1.153-.031,1.215-.031.132,0,.983.031,1.927.07.944.07,2.027.1,2.569.1,5.068,0,7.475-3.18,7.475-6.392,0-3.242-2.979-5.308-5.239-5.989,1.524-1.354,3.01-2.77,3.01-5.037,0-1.524-1.285-4.4-6.26-4.4-1.385,0-2.77.07-3.482.07-.17,0-2.1-.07-3.451-.07-.34,0-.472.07-.472.24,0,.1.139.17.24.17a8.344,8.344,0,0,1,1.014.07c.983.132,1.153.673,1.215,1.656.07.913.07,1.726.07,6.19V13.8Zm-26.271-.843c0,4.194,1.153,6.19,2.6,7.545,2.1,1.958,5.208,2.027,6.19,2.027a8.985,8.985,0,0,0,6.221-2.1c2.368-2.027,2.77-5.509,2.77-8.62V8.729c0-4.465-.031-5.277.031-6.19.07-.944.24-1.416,1.052-1.586a3.374,3.374,0,0,1,.743-.07.264.264,0,0,0,.24-.24c0-.17-.132-.24-.472-.24-.882,0-2.3.07-2.5.07-.17,0-1.9-.07-3.211-.07-.34,0-.472.07-.472.24a.257.257,0,0,0,.24.24,8.344,8.344,0,0,1,1.014.07c.983.139,1.153.673,1.184,1.586s.07,1.726.07,6.19V12.35c0,2.94-.3,5.308-1.687,6.964a6.106,6.106,0,0,1-4.6,2.027,5.824,5.824,0,0,1-4.434-1.555c-1.285-1.153-2.2-2.871-2.2-7.034V8.729c0-4.465,0-5.277.07-6.19.07-.944.24-1.455,1.014-1.586a3.374,3.374,0,0,1,.743-.07.3.3,0,0,0,.271-.24c0-.17-.17-.24-.5-.24-.882,0-2.739.07-3.01.07S174.188.4,172.842.4c-.34,0-.472.07-.472.24a.3.3,0,0,0,.24.24,8.344,8.344,0,0,1,1.014.07c.983.139,1.153.673,1.215,1.586s.07,1.726.07,6.19v4.225Z" transform="translate(-147.515)"/>
        <path id="Path_352" data-name="Path 352" class="cls-15" d="M159.982,3.956C156.484.428,151.076.7,148.12.7c-1.749,0-3.629.07-3.97.07-.17,0-2.082-.07-3.428-.07-.333,0-.472.07-.472.232a.279.279,0,0,0,.232.232,8.214,8.214,0,0,1,1.006.07c.975.132,1.145.6,1.207,1.579.07.905.07,1.718.07,6.152v5.045a57.561,57.561,0,0,1-.17,6.183c-.132.843-.2,1.377-.774,1.509a4.127,4.127,0,0,1-.905.132.222.222,0,0,0-.232.232c0,.17.17.232.472.232.472,0,1.176-.031,1.78-.07.6,0,1.145-.031,1.207-.031.132,0,1.145.07,2.422.17,1.277.07,2.855.17,4.132.17,5.045,0,7.7-1.981,8.976-3.3a11.429,11.429,0,0,0,3.2-8.032A10.024,10.024,0,0,0,159.982,3.956Zm-2.321,14.927a9.919,9.919,0,0,1-6.926,2.585c-3.5,0-4.535-.6-4.906-1.145a5.425,5.425,0,0,1-.333-2.051c-.031-.542-.031-3.2-.031-6.221V2.509a.5.5,0,0,1,.371-.573,7.9,7.9,0,0,1,1.78-.2c3.529,0,6.786.371,9.58,3.2a9.9,9.9,0,0,1,2.793,7.158C159.982,14.712,159.208,17.436,157.661,18.883Z" transform="translate(-140.25 -0.157)"/>
      </g>
    </g>
  </g>
</svg>
